<svg xmlns="http://www.w3.org/2000/svg" version="1.1" xmlns:xlink="http://www.w3.org/1999/xlink" xmlns:svgjs="http://svgjs.com/svgjs" width="1920" height="1080" preserveAspectRatio="none" viewBox="0 0 1920 1080">
    <g mask="url(&quot;#SvgjsMask1056&quot;)" fill="none">
        <rect width="1920" height="1080" x="0" y="0" fill="rgba(10, 16, 13, 1)"></rect>
        <path d="M0,825.617C160.395,865.912,332.092,821.067,479.559,746.209C636.615,666.483,810.482,561.104,856.17,391C901.593,221.882,740.6,70.222,707.295,-101.694C676.304,-261.667,765.195,-448.071,668.246,-579.039C571.051,-710.341,377.691,-706.665,222.256,-756.935C61.886,-808.8,-92.399,-910.09,-257.978,-878.591C-428.595,-846.134,-594.328,-739.128,-676.284,-586.004C-754.757,-439.388,-673.733,-263.499,-676.187,-97.221C-678.257,43.059,-754.19,190.389,-689.58,314.921C-625.362,438.699,-458.293,455.759,-346.233,538.75C-223.299,629.794,-148.366,788.344,0,825.617" fill="#070b09"></path>
        <path d="M1920 1887.854C2072.991 1903.138 2233.126 1849.062 2350.175 1749.365 2461.619 1654.441 2482.9049999999997 1497.828 2537.415 1361.964 2589.091 1233.164 2645.753 1111.271 2661.503 973.388 2681.525 798.111 2745.199 597.6089999999999 2640.987 455.26099999999997 2537.1530000000002 313.429 2324.01 327.90999999999997 2154.608 280.99699999999996 1988.135 234.89499999999998 1813.091 109.68499999999995 1656.508 182.62699999999995 1497.438 256.72799999999995 1480.896 474.523 1402.3310000000001 631.437 1344.076 747.7860000000001 1290.913 859.314 1255.0700000000002 984.398 1213.6280000000002 1129.02 1118.359 1280.791 1176.4940000000001 1419.548 1234.613 1558.267 1414.469 1588.441 1541.731 1668.598 1667.597 1747.876 1771.9850000000001 1873.067 1920 1887.854" fill="#0d1511"></path>
    </g>
    <defs>
        <mask id="SvgjsMask1056">
            <rect width="1920" height="1080" fill="#ffffff"></rect>
        </mask>
    </defs>
</svg>